<svg xmlns="http://www.w3.org/2000/svg" version="1.1" xmlns:xlink="http://www.w3.org/1999/xlink" xmlns:svgjs="http://svgjs.com/svgjs" width="293.79239" height="335.15732"><svg version="1.1" id="SvgjsSvg1011" width="293.79239" height="335.15732" viewBox="0 0 293.79239 335.15732" sodipodi:docname="is_v2_raw.svg" inkscape:version="1.3.2 (091e20e, 2023-11-25, custom)" inkscape:export-filename="..\exports\v2\logo_name_2.svg" inkscape:export-xdpi="96" inkscape:export-ydpi="96" xmlns:inkscape="http://www.inkscape.org/namespaces/inkscape" xmlns:sodipodi="http://sodipodi.sourceforge.net/DTD/sodipodi-0.dtd" xmlns="http://www.w3.org/2000/svg" xmlns:svg="http://www.w3.org/2000/svg">
  <defs id="SvgjsDefs1010"></defs>
  <sodipodi:namedview id="SvgjsSodipodi:namedview1009" pagecolor="#ffffff" bordercolor="#999999" borderopacity="1" inkscape:showpageshadow="2" inkscape:pageopacity="0" inkscape:pagecheckerboard="0" inkscape:deskcolor="#d1d1d1" inkscape:zoom="1" inkscape:cx="289" inkscape:cy="804.5" inkscape:window-width="3840" inkscape:window-height="2054" inkscape:window-x="-11" inkscape:window-y="-11" inkscape:window-maximized="1" inkscape:current-layer="g1"></sodipodi:namedview>
  <g inkscape:groupmode="layer" inkscape:label="Image" id="SvgjsG1008" transform="translate(-491.8848,-112.43164)">
    <g id="SvgjsG1007" inkscape:label="Logo" style="display:inline;fill:#272727;fill-opacity:1">
      <path style="display:inline;fill:#272727;fill-opacity:1;stroke-width:1.54159" d="m 647.78201,441.43357 c 0,0 -14.00095,12.55436 -26.21256,1.80439 -10.87009,-9.56903 -8.01455,-20.87622 -1.72826,-28.35292 3.14315,-3.73835 22.01603,-18.48445 23.37745,-23.889 0.45898,-1.82207 1.3961,-7.9946 -2.90333,-10.57288 -6.13329,-3.67801 -5.94647,-13.8911 -3.80826,-17.67375 2.13821,-3.78265 4.25151,-7.87977 12.71316,-7.84548 8.65205,0.0351 47.32841,-0.37075 85.5459,0.19154 -29.21529,28.7469 -57.92677,57.4246 -86.9841,86.3381 z" id="SvgjsPath1006" sodipodi:nodetypes="csssszscc" inkscape:label="Stream3"></path>
      <path style="display:inline;fill:#272727;fill-opacity:1" d="m 593.61338,394.03447 -24.49956,24.65364 c 0,0 -11.01709,7.74278 -21.61045,-0.65486 -10.59336,-8.39765 -9.12955,-20.53186 -4.81517,-25.1159 4.31439,-4.58403 25.46259,-24.61511 25.46259,-24.61511 0,0 12.09569,-5.50855 21.03263,2.81205 8.93695,8.32061 6.5101,20.6089 4.42996,22.92018 z M 557.17222,382.5166" id="SvgjsPath1005" sodipodi:nodetypes="ccsscsc" inkscape:label="Stream2"></path>
      <path style="display:inline;fill:#272727;fill-opacity:1;stroke-width:1.54159" d="m 587.08565,322.14511 -59.47646,59.38686 c 0,0 -14.15503,11.86098 -26.36664,1.11101 -10.87009,-9.56903 -6.93594,-20.33692 -0.64967,-27.81363 6.28629,-7.4767 64.69073,-64.20466 64.69073,-64.20466 0,0 12.85416,-11.68596 25.88873,1.87269 13.03828,13.5625 2.52683,24.01774 -4.08669,29.64773 z" id="SvgjsPath1004" sodipodi:nodetypes="ccsscsc" inkscape:label="Stream1"></path>
      <circle style="display:inline;fill:#272727;fill-opacity:1" id="SvgjsCircle1003" cx="771.46625" cy="346.00803" r="14" inkscape:label="Drop"></circle>
      <path style="fill:#272727;fill-opacity:1" d="m 640.1086,336.67624 96.49587,-0.15408 c 0,0 12.55795,-2.08015 12.48091,-15.1774 -0.077,-13.09724 -12.09569,-16.79529 -12.09569,-16.79529 l -106.24177,-0.077 -30.50888,29.19915 c 0,0 -9.6492,11.55206 -0.0959,21.18239 9.55329,9.63033 19.51065,1.69927 19.51065,1.69927 z" id="SvgjsPath1002" sodipodi:nodetypes="ccsccczcc" inkscape:label="Code2"></path>
      <path style="fill:#272727;fill-opacity:1" d="m 761.56628,254.62585 -86.51886,0.57782 c 0,0 -7.28052,-2.00311 -7.16496,-8.85989 0.13113,-7.78059 6.31749,-9.28364 6.31749,-9.28364 0,0 43.40078,-0.16562 52.88771,-0.1099 1.76099,-0.10589 3.9154,-0.16365 6.35807,-3.51111 2.31564,-3.17337 1.54085,-8.62877 1.54085,-8.62877 h -7.62722 c 0,0 -5.49779,-1.38488 -5.31594,-8.16652 0.1839,-6.85822 7.4965,-9.1463 7.4965,-9.1463 0,0 33.99923,-0.0921 44.04033,-0.0949 3.64002,0.0789 12.01948,-6.80793 12.0965,-16.82347 0.077,-10.01554 -9.86071,-15.78387 -14.08492,-15.89161 -13.8667,-0.026 -64.60547,-0.93853 -64.60547,-0.93853 0,0 -6.22062,55.53159 -64.37388,56.30027 -41.29916,0.5459 -55.27334,-28.46906 -59.86211,-35.36257 -15.02805,15.29477 -86.05661,83.59125 -86.05661,83.59125 0,0 -11.17118,14.40697 0.5393,25.65519 11.71048,11.24822 26.42562,1.23268 26.42562,1.23268 l 68.3368,-66.79595 c 0,0 5.39298,-5.00777 12.4809,0.5393 7.08792,5.54707 3.52287,12.24209 2.52601,13.54335 -1.31552,1.71722 -11.43337,8.40123 -9.84535,17.36149 1.58802,8.96026 7.34605,15.17314 13.67536,16.28377 22.12488,-0.0198 149.88641,0.42373 149.88641,0.42373 0,0 12.78908,-3.54396 12.63499,-15.02331 -0.15408,-11.47935 -8.01243,-16.71825 -11.78752,-16.87234 z" id="SvgjsPath1001" sodipodi:nodetypes="ccsccsccscczccsccsccsszccscc" inkscape:label="Code1"></path>
      <path id="SvgjsPath1000" style="display:inline;fill:#272727;fill-opacity:1" d="m 642.39648,112.43164 c -28.16652,0 -51,22.83348 -51,51 0,28.16652 22.83348,51 51,51 28.16652,0 51,-22.83348 51,-51 0,-28.16652 -22.83348,-51 -51,-51 z m 16.71103,19.80339 c 25.2261,12.28828 19.45436,39.45409 18.22337,42.09302 -1.77897,3.81367 -4.32385,7.59043 -9.36213,4.97468 -5.03828,-2.61575 -3.28549,-7.49976 -2.514,-9.90735 0.77148,-2.40759 3.96552,-16.82633 -12.96529,-25.5455 -16.93081,-8.71917 -27.44326,3.48239 -31.49974,9.08005 -3.52565,4.86516 -7.95336,4.38937 -10.14873,2.77874 -2.19536,-1.61064 -3.79533,-5.53497 -0.63658,-10.15753 6.01142,-9.19096 23.677,-25.60439 48.9031,-13.31611 z" sodipodi:nodetypes="ssssszszzsszcz" inkscape:label="Eye"></path>
    </g>
  </g>
</svg><style>@media (prefers-color-scheme: light) { :root { filter: none; } }
@media (prefers-color-scheme: dark) { :root { filter: invert(100%); } }
</style></svg>